# xmcd
#
# Track frame offsets:
#	150
#	11982
#	22495
#	33117
#	43850
#	56775
#	67690
#	77015
#	86205
#	97990
#
# Disc length: 1433 seconds
#
# Revision: 0
# Processed by: cddbd v1.4PL0 Copyright (c) Steve Scherf et al.
# Submitted via: dBpowerAMP V4.0
#
DISCID=7f05970a
DTITLE=Roy Rogers and Dale Evans - Songs Of The Old West
DYEAR=1998
DGENRE=Country
TTITLE0=Home On The Range
TTITLE1=Whoopee  Ti Yi Yo
TTITLE2=Colorado Trail
TTITLE3=Streets Of Laredo
TTITLE4=Tumbling Tumbelweeds
TTITLE5=Cool Water
TTITLE6=Song Wagon
TTITLE7=Railroad Corral
TTITLE8=Red River Valley
TTITLE9=Cowman's Prayer
EXTD=
EXTT0=
EXTT1=
EXTT2=
EXTT3=
EXTT4=
EXTT5=
EXTT6=
EXTT7=
EXTT8=
EXTT9=
PLAYORDER=
